<svg width="158" height="36" viewBox="0 0 158 36" fill="none" xmlns="http://www.w3.org/2000/svg">
<path d="M8.76 35L0.12 19.928V16.376H3C4.152 16.376 5.16 16.216 6.024 15.896C6.92 15.544 7.656 15.048 8.232 14.408C8.84 13.768 9.256 13 9.48 12.104H0.12V8.552H9.432C9.24 7.72 8.904 6.984 8.424 6.344C7.976 5.704 7.368 5.208 6.6 4.856C5.864 4.472 4.968 4.28 3.912 4.28H0.12V0.727998H21.768V4.28H14.232C14.776 4.888 15.224 5.544 15.576 6.248C15.96 6.952 16.216 7.72 16.344 8.552H21.768V12.104H16.44C16.12 14.472 15.208 16.328 13.704 17.672C12.2 18.984 10.264 19.88 7.896 20.36L17.304 35H8.76ZM51.1088 25.544C51.2528 24.632 51.3488 23.816 51.3488 23C51.3488 19.4 50.1968 16.424 47.8928 13.976C45.6368 11.528 42.7087 10.328 39.2048 10.328C35.5088 10.328 32.4367 11.528 30.0847 13.976C27.7327 16.376 26.5327 19.4 26.5327 23C26.5327 26.648 27.7327 29.672 30.1327 32.072C32.5327 34.472 35.7007 35.672 39.6848 35.672C44.2928 35.672 47.7968 33.944 50.1488 30.536L45.1568 27.656C43.9568 29.24 42.1328 30.056 39.7808 30.056C36.0847 30.056 33.8287 28.568 33.0128 25.544H51.1088ZM32.9167 20.744C33.6367 17.672 35.8928 15.896 39.2048 15.896C42.0367 15.896 44.4368 17.48 45.1568 20.744H32.9167ZM76.7434 17.576C78.8554 15.896 79.9114 13.64 79.9114 10.856C79.9114 8.12 78.9034 5.864 76.9354 4.088C74.9674 2.312 72.5674 1.4 69.6874 1.4H56.4394V35H70.6954C73.6234 35 76.1194 34.088 78.1354 32.264C80.1514 30.44 81.1594 28.088 81.1594 25.256C81.1594 21.848 79.6714 19.256 76.7434 17.576ZM69.6874 7.592C71.7994 7.592 73.2874 9.176 73.2874 11.288C73.2874 13.4 71.7514 14.984 69.6874 14.984H63.0634V7.592H69.6874ZM63.0634 28.808V20.888H70.6954C72.9514 20.888 74.5834 22.568 74.5834 24.824C74.5834 27.128 72.9514 28.808 70.6954 28.808H63.0634ZM104.309 13.832C102.437 11.48 99.8449 10.328 96.4849 10.328C93.2689 10.328 90.5329 11.576 88.2289 14.024C85.9729 16.472 84.8209 19.448 84.8209 23C84.8209 26.552 85.9729 29.576 88.2289 32.024C90.5329 34.472 93.2689 35.672 96.4849 35.672C99.8449 35.672 102.437 34.52 104.309 32.168V35H110.501V11H104.309V13.832ZM92.8849 27.896C91.6369 26.6 91.0129 24.968 91.0129 23C91.0129 21.032 91.6369 19.4 92.8849 18.152C94.1329 16.856 95.7169 16.232 97.6369 16.232C99.5569 16.232 101.141 16.856 102.389 18.152C103.685 19.4 104.309 21.032 104.309 23C104.309 24.968 103.685 26.6 102.389 27.896C101.141 29.144 99.5569 29.768 97.6369 29.768C95.7169 29.768 94.1329 29.144 92.8849 27.896ZM134.308 15.128V11H116.308V16.808H125.956L115.828 30.872V35H134.788V29.192H124.132L134.308 15.128ZM157.006 15.128V11H139.006V16.808H148.654L138.526 30.872V35H157.486V29.192H146.83L157.006 15.128Z" fill="white"/>
</svg>
