<svg width="244" height="55" viewBox="0 0 244 55" fill="none" xmlns="http://www.w3.org/2000/svg">
<path d="M14.13 53L0.81 29.764V24.288H5.25C7.026 24.288 8.58 24.0413 9.912 23.548C11.2933 23.0053 12.428 22.2407 13.316 21.254C14.2533 20.2673 14.8947 19.0833 15.24 17.702H0.81V12.226H15.166C14.87 10.9433 14.352 9.80867 13.612 8.822C12.9213 7.83533 11.984 7.07066 10.8 6.528C9.66533 5.936 8.284 5.64 6.656 5.64H0.81V0.163997H34.184V5.64H22.566C23.4047 6.57733 24.0953 7.58866 24.638 8.674C25.23 9.75933 25.6247 10.9433 25.822 12.226H34.184V17.702H25.97C25.4767 21.3527 24.0707 24.214 21.752 26.286C19.4333 28.3087 16.4487 29.69 12.798 30.43L27.302 53H14.13ZM79.4177 38.422C79.6397 37.016 79.7877 35.758 79.7877 34.5C79.7877 28.95 78.0117 24.362 74.4597 20.588C70.9817 16.814 66.4677 14.964 61.0657 14.964C55.3677 14.964 50.6317 16.814 47.0057 20.588C43.3797 24.288 41.5297 28.95 41.5297 34.5C41.5297 40.124 43.3797 44.786 47.0797 48.486C50.7797 52.186 55.6637 54.036 61.8057 54.036C68.9097 54.036 74.3117 51.372 77.9377 46.118L70.2417 41.678C68.3917 44.12 65.5797 45.378 61.9537 45.378C56.2557 45.378 52.7777 43.084 51.5197 38.422H79.4177ZM51.3717 31.022C52.4817 26.286 55.9597 23.548 61.0657 23.548C65.4317 23.548 69.1317 25.99 70.2417 31.022H51.3717ZM118.938 26.138C122.194 23.548 123.822 20.07 123.822 15.778C123.822 11.56 122.268 8.082 119.234 5.344C116.2 2.606 112.5 1.2 108.06 1.2H87.6357V53H109.614C114.128 53 117.976 51.594 121.084 48.782C124.192 45.97 125.746 42.344 125.746 37.978C125.746 32.724 123.452 28.728 118.938 26.138ZM108.06 10.746C111.316 10.746 113.61 13.188 113.61 16.444C113.61 19.7 111.242 22.142 108.06 22.142H97.8477V10.746H108.06ZM97.8477 43.454V31.244H109.614C113.092 31.244 115.608 33.834 115.608 37.312C115.608 40.864 113.092 43.454 109.614 43.454H97.8477ZM161.435 20.366C158.549 16.74 154.553 14.964 149.373 14.964C144.415 14.964 140.197 16.888 136.645 20.662C133.167 24.436 131.391 29.024 131.391 34.5C131.391 39.976 133.167 44.638 136.645 48.412C140.197 52.186 144.415 54.036 149.373 54.036C154.553 54.036 158.549 52.26 161.435 48.634V53H170.981V16H161.435V20.366ZM143.823 42.048C141.899 40.05 140.937 37.534 140.937 34.5C140.937 31.466 141.899 28.95 143.823 27.026C145.747 25.028 148.189 24.066 151.149 24.066C154.109 24.066 156.551 25.028 158.475 27.026C160.473 28.95 161.435 31.466 161.435 34.5C161.435 37.534 160.473 40.05 158.475 42.048C156.551 43.972 154.109 44.934 151.149 44.934C148.189 44.934 145.747 43.972 143.823 42.048ZM207.683 22.364V16H179.933V24.954H194.807L179.193 46.636V53H208.423V44.046H191.995L207.683 22.364ZM242.677 22.364V16H214.927V24.954H229.801L214.187 46.636V53H243.417V44.046H226.989L242.677 22.364Z" fill="#4A8DDD"/>
</svg>
